<svg width="18" height="18" viewBox="0 0 18 18" fill="none" xmlns="http://www.w3.org/2000/svg">
<path d="M13.765 3.21362C13.182 3.21362 12.7094 3.68623 12.7094 4.26873C12.7094 4.85174 13.182 5.32435 13.765 5.32435C14.3475 5.32435 14.8201 4.85174 14.8201 4.26873C14.8201 3.68623 14.3475 3.21362 13.765 3.21362Z" fill="white"/>
<path d="M9.07329 11.8393C7.50741 11.8393 6.23353 10.5654 6.23353 9.00003C6.23353 7.43414 7.50741 6.16028 9.07329 6.16028C10.6387 6.16028 11.9125 7.43414 11.9125 9.00003C11.9125 10.5654 10.6387 11.8393 9.07329 11.8393ZM9.07329 4.56693C6.62883 4.56693 4.6402 6.55556 4.6402 9.00003C4.6402 11.444 6.62883 13.4326 9.07329 13.4326C11.5172 13.4326 13.5059 11.444 13.5059 9.00003C13.5059 6.55556 11.5172 4.56693 9.07329 4.56693Z" fill="white"/>
<path d="M5.40632 1.69357C3.35866 1.69357 1.69307 3.35917 1.69307 5.40682V12.5932C1.69307 14.6408 3.35866 16.3064 5.40632 16.3064H12.5927C14.6403 16.3064 16.3064 14.6408 16.3064 12.5932V5.40682C16.3064 3.35917 14.6403 1.69357 12.5927 1.69357H5.40632ZM12.5927 18H5.40632C2.42463 18 0 15.5744 0 12.5932V5.40682C0 2.42513 2.42463 0 5.40632 0H12.5927C15.5738 0 17.9995 2.42513 17.9995 5.40682V12.5932C17.9995 15.5744 15.5738 18 12.5927 18Z" fill="white"/>
</svg>
